<svg xmlns="http://www.w3.org/2000/svg" version="1.1" xmlns:xlink="http://www.w3.org/1999/xlink" xmlns:svgjs="http://svgjs.com/svgjs" width="1440" height="1440" preserveAspectRatio="none" viewBox="0 0 1440 1440"><g mask="url(&quot;#SvgjsMask1123&quot;)" fill="none"><rect width="1440" height="1440" x="0" y="0" fill="url(#SvgjsLinearGradient1124)"></rect><path d="M206.26 297.73L271.21 335.23L271.21 410.23L206.26 447.73L141.31 410.23L141.31 335.23zM206.26 522.73L271.21 560.23L271.21 635.23L206.26 672.73L141.31 635.23L141.31 560.23zM206.26 1422.73L271.21 1460.23L271.21 1535.23L206.26 1572.73L141.31 1535.23L141.31 1460.23zM466.08 1197.73L531.03 1235.23L531.03 1310.23L466.08 1347.73L401.12 1310.23L401.12 1235.23zM660.94 860.23L725.89 897.73L725.89 972.73L660.94 1010.23L595.98 972.73L595.98 897.73zM660.94 1310.23L725.89 1347.73L725.89 1422.73L660.94 1460.23L595.98 1422.73L595.98 1347.73zM855.8 522.73L920.75 560.23L920.75 635.23L855.8 672.73L790.84 635.23L790.84 560.23zM855.8 972.73L920.75 1010.23L920.75 1085.23L855.8 1122.73L790.84 1085.23L790.84 1010.23zM855.8 1197.73L920.75 1235.23L920.75 1310.23L855.8 1347.73L790.84 1310.23L790.84 1235.23zM920.75 410.23L985.71 447.73L985.71 522.73L920.75 560.23L855.8 522.73L855.8 447.73zM1050.66 185.23L1115.61 222.73L1115.61 297.73L1050.66 335.23L985.71 297.73L985.71 222.73zM1050.66 860.23L1115.61 897.73L1115.61 972.73L1050.66 1010.23L985.71 972.73L985.71 897.73zM1115.61 1197.73L1180.57 1235.23L1180.57 1310.23L1115.61 1347.73L1050.66 1310.23L1050.66 1235.23zM1180.57 -39.77L1245.52 -2.27L1245.52 72.73L1180.57 110.23L1115.61 72.73L1115.61 -2.27zM1180.57 635.23L1245.52 672.73L1245.52 747.73L1180.57 785.23L1115.61 747.73L1115.61 672.73zM1375.43 297.73L1440.38 335.23L1440.38 410.23L1375.43 447.73L1310.48 410.23L1310.48 335.23zM1310.48 635.23L1375.43 672.73L1375.43 747.73L1310.48 785.23L1245.52 747.73L1245.52 672.73zM1440.38 635.23L1505.34 672.73L1505.34 747.73L1440.38 785.23L1375.43 747.73L1375.43 672.73z" stroke="#03305d" stroke-width="2"></path><path d="M198.76 297.73 a7.5 7.5 0 1 0 15 0 a7.5 7.5 0 1 0 -15 0zM263.71 335.23 a7.5 7.5 0 1 0 15 0 a7.5 7.5 0 1 0 -15 0zM263.71 410.23 a7.5 7.5 0 1 0 15 0 a7.5 7.5 0 1 0 -15 0zM198.76 447.73 a7.5 7.5 0 1 0 15 0 a7.5 7.5 0 1 0 -15 0zM133.81 410.23 a7.5 7.5 0 1 0 15 0 a7.5 7.5 0 1 0 -15 0zM133.81 335.23 a7.5 7.5 0 1 0 15 0 a7.5 7.5 0 1 0 -15 0zM198.76 522.73 a7.5 7.5 0 1 0 15 0 a7.5 7.5 0 1 0 -15 0zM263.71 560.23 a7.5 7.5 0 1 0 15 0 a7.5 7.5 0 1 0 -15 0zM263.71 635.23 a7.5 7.5 0 1 0 15 0 a7.5 7.5 0 1 0 -15 0zM198.76 672.73 a7.5 7.5 0 1 0 15 0 a7.5 7.5 0 1 0 -15 0zM133.81 635.23 a7.5 7.5 0 1 0 15 0 a7.5 7.5 0 1 0 -15 0zM133.81 560.23 a7.5 7.5 0 1 0 15 0 a7.5 7.5 0 1 0 -15 0zM198.76 1422.73 a7.5 7.5 0 1 0 15 0 a7.5 7.5 0 1 0 -15 0zM263.71 1460.23 a7.5 7.5 0 1 0 15 0 a7.5 7.5 0 1 0 -15 0zM263.71 1535.23 a7.5 7.5 0 1 0 15 0 a7.5 7.5 0 1 0 -15 0zM198.76 1572.73 a7.5 7.5 0 1 0 15 0 a7.5 7.5 0 1 0 -15 0zM133.81 1535.23 a7.5 7.5 0 1 0 15 0 a7.5 7.5 0 1 0 -15 0zM133.81 1460.23 a7.5 7.5 0 1 0 15 0 a7.5 7.5 0 1 0 -15 0zM458.58 1197.73 a7.5 7.5 0 1 0 15 0 a7.5 7.5 0 1 0 -15 0zM523.53 1235.23 a7.5 7.5 0 1 0 15 0 a7.5 7.5 0 1 0 -15 0zM523.53 1310.23 a7.5 7.5 0 1 0 15 0 a7.5 7.5 0 1 0 -15 0zM458.58 1347.73 a7.5 7.5 0 1 0 15 0 a7.5 7.5 0 1 0 -15 0zM393.62 1310.23 a7.5 7.5 0 1 0 15 0 a7.5 7.5 0 1 0 -15 0zM393.62 1235.23 a7.5 7.5 0 1 0 15 0 a7.5 7.5 0 1 0 -15 0zM653.44 860.23 a7.5 7.5 0 1 0 15 0 a7.5 7.5 0 1 0 -15 0zM718.39 897.73 a7.5 7.5 0 1 0 15 0 a7.5 7.5 0 1 0 -15 0zM718.39 972.73 a7.5 7.5 0 1 0 15 0 a7.5 7.5 0 1 0 -15 0zM653.44 1010.23 a7.5 7.5 0 1 0 15 0 a7.5 7.5 0 1 0 -15 0zM588.48 972.73 a7.5 7.5 0 1 0 15 0 a7.5 7.5 0 1 0 -15 0zM588.48 897.73 a7.5 7.5 0 1 0 15 0 a7.5 7.5 0 1 0 -15 0zM653.44 1310.23 a7.5 7.5 0 1 0 15 0 a7.5 7.5 0 1 0 -15 0zM718.39 1347.73 a7.5 7.5 0 1 0 15 0 a7.5 7.5 0 1 0 -15 0zM718.39 1422.73 a7.5 7.5 0 1 0 15 0 a7.5 7.5 0 1 0 -15 0zM653.44 1460.23 a7.5 7.5 0 1 0 15 0 a7.5 7.5 0 1 0 -15 0zM588.48 1422.73 a7.5 7.5 0 1 0 15 0 a7.5 7.5 0 1 0 -15 0zM588.48 1347.73 a7.5 7.5 0 1 0 15 0 a7.5 7.5 0 1 0 -15 0zM848.3 522.73 a7.5 7.5 0 1 0 15 0 a7.5 7.5 0 1 0 -15 0zM913.25 560.23 a7.5 7.5 0 1 0 15 0 a7.5 7.5 0 1 0 -15 0zM913.25 635.23 a7.5 7.5 0 1 0 15 0 a7.5 7.5 0 1 0 -15 0zM848.3 672.73 a7.5 7.5 0 1 0 15 0 a7.5 7.5 0 1 0 -15 0zM783.34 635.23 a7.5 7.5 0 1 0 15 0 a7.5 7.5 0 1 0 -15 0zM783.34 560.23 a7.5 7.5 0 1 0 15 0 a7.5 7.5 0 1 0 -15 0zM848.3 972.73 a7.5 7.5 0 1 0 15 0 a7.5 7.5 0 1 0 -15 0zM913.25 1010.23 a7.5 7.5 0 1 0 15 0 a7.5 7.5 0 1 0 -15 0zM913.25 1085.23 a7.5 7.5 0 1 0 15 0 a7.5 7.5 0 1 0 -15 0zM848.3 1122.73 a7.5 7.5 0 1 0 15 0 a7.5 7.5 0 1 0 -15 0zM783.34 1085.23 a7.5 7.5 0 1 0 15 0 a7.5 7.5 0 1 0 -15 0zM783.34 1010.23 a7.5 7.5 0 1 0 15 0 a7.5 7.5 0 1 0 -15 0zM848.3 1197.73 a7.5 7.5 0 1 0 15 0 a7.5 7.5 0 1 0 -15 0zM913.25 1235.23 a7.5 7.5 0 1 0 15 0 a7.5 7.5 0 1 0 -15 0zM913.25 1310.23 a7.5 7.5 0 1 0 15 0 a7.5 7.5 0 1 0 -15 0zM848.3 1347.73 a7.5 7.5 0 1 0 15 0 a7.5 7.5 0 1 0 -15 0zM783.34 1310.23 a7.5 7.5 0 1 0 15 0 a7.5 7.5 0 1 0 -15 0zM783.34 1235.23 a7.5 7.5 0 1 0 15 0 a7.5 7.5 0 1 0 -15 0zM913.25 410.23 a7.5 7.5 0 1 0 15 0 a7.5 7.5 0 1 0 -15 0zM978.21 447.73 a7.5 7.5 0 1 0 15 0 a7.5 7.5 0 1 0 -15 0zM978.21 522.73 a7.5 7.5 0 1 0 15 0 a7.5 7.5 0 1 0 -15 0zM848.3 447.73 a7.5 7.5 0 1 0 15 0 a7.5 7.5 0 1 0 -15 0zM1043.16 185.23 a7.5 7.5 0 1 0 15 0 a7.5 7.5 0 1 0 -15 0zM1108.11 222.73 a7.5 7.5 0 1 0 15 0 a7.5 7.5 0 1 0 -15 0zM1108.11 297.73 a7.5 7.5 0 1 0 15 0 a7.5 7.5 0 1 0 -15 0zM1043.16 335.23 a7.5 7.5 0 1 0 15 0 a7.5 7.5 0 1 0 -15 0zM978.21 297.73 a7.5 7.5 0 1 0 15 0 a7.5 7.5 0 1 0 -15 0zM978.21 222.73 a7.5 7.5 0 1 0 15 0 a7.5 7.5 0 1 0 -15 0zM1043.16 860.23 a7.5 7.5 0 1 0 15 0 a7.5 7.5 0 1 0 -15 0zM1108.11 897.73 a7.5 7.5 0 1 0 15 0 a7.5 7.5 0 1 0 -15 0zM1108.11 972.73 a7.5 7.5 0 1 0 15 0 a7.5 7.5 0 1 0 -15 0zM1043.16 1010.23 a7.5 7.5 0 1 0 15 0 a7.5 7.5 0 1 0 -15 0zM978.21 972.73 a7.5 7.5 0 1 0 15 0 a7.5 7.5 0 1 0 -15 0zM978.21 897.73 a7.5 7.5 0 1 0 15 0 a7.5 7.5 0 1 0 -15 0zM1108.11 1197.73 a7.5 7.5 0 1 0 15 0 a7.5 7.5 0 1 0 -15 0zM1173.07 1235.23 a7.5 7.5 0 1 0 15 0 a7.5 7.5 0 1 0 -15 0zM1173.07 1310.23 a7.5 7.5 0 1 0 15 0 a7.5 7.5 0 1 0 -15 0zM1108.11 1347.73 a7.5 7.5 0 1 0 15 0 a7.5 7.5 0 1 0 -15 0zM1043.16 1310.23 a7.5 7.5 0 1 0 15 0 a7.5 7.5 0 1 0 -15 0zM1043.16 1235.23 a7.5 7.5 0 1 0 15 0 a7.5 7.5 0 1 0 -15 0zM1173.07 -39.77 a7.5 7.5 0 1 0 15 0 a7.5 7.5 0 1 0 -15 0zM1238.02 -2.27 a7.5 7.5 0 1 0 15 0 a7.5 7.5 0 1 0 -15 0zM1238.02 72.73 a7.5 7.5 0 1 0 15 0 a7.5 7.5 0 1 0 -15 0zM1173.07 110.23 a7.5 7.5 0 1 0 15 0 a7.5 7.5 0 1 0 -15 0zM1108.11 72.73 a7.5 7.5 0 1 0 15 0 a7.5 7.5 0 1 0 -15 0zM1108.11 -2.27 a7.5 7.5 0 1 0 15 0 a7.5 7.5 0 1 0 -15 0zM1173.07 635.23 a7.5 7.5 0 1 0 15 0 a7.5 7.5 0 1 0 -15 0zM1238.02 672.73 a7.5 7.5 0 1 0 15 0 a7.5 7.5 0 1 0 -15 0zM1238.02 747.73 a7.5 7.5 0 1 0 15 0 a7.5 7.5 0 1 0 -15 0zM1173.07 785.23 a7.5 7.5 0 1 0 15 0 a7.5 7.5 0 1 0 -15 0zM1108.11 747.73 a7.5 7.5 0 1 0 15 0 a7.5 7.5 0 1 0 -15 0zM1108.11 672.73 a7.5 7.5 0 1 0 15 0 a7.5 7.5 0 1 0 -15 0zM1367.93 297.73 a7.5 7.5 0 1 0 15 0 a7.5 7.5 0 1 0 -15 0zM1432.88 335.23 a7.5 7.5 0 1 0 15 0 a7.5 7.5 0 1 0 -15 0zM1432.88 410.23 a7.5 7.5 0 1 0 15 0 a7.5 7.5 0 1 0 -15 0zM1367.93 447.73 a7.5 7.5 0 1 0 15 0 a7.5 7.5 0 1 0 -15 0zM1302.98 410.23 a7.5 7.5 0 1 0 15 0 a7.5 7.5 0 1 0 -15 0zM1302.98 335.23 a7.5 7.5 0 1 0 15 0 a7.5 7.5 0 1 0 -15 0zM1302.98 635.23 a7.5 7.5 0 1 0 15 0 a7.5 7.5 0 1 0 -15 0zM1367.93 672.73 a7.5 7.5 0 1 0 15 0 a7.5 7.5 0 1 0 -15 0zM1367.93 747.73 a7.5 7.5 0 1 0 15 0 a7.5 7.5 0 1 0 -15 0zM1302.98 785.23 a7.5 7.5 0 1 0 15 0 a7.5 7.5 0 1 0 -15 0zM1432.88 635.23 a7.5 7.5 0 1 0 15 0 a7.5 7.5 0 1 0 -15 0zM1497.84 672.73 a7.5 7.5 0 1 0 15 0 a7.5 7.5 0 1 0 -15 0zM1497.84 747.73 a7.5 7.5 0 1 0 15 0 a7.5 7.5 0 1 0 -15 0zM1432.88 785.23 a7.5 7.5 0 1 0 15 0 a7.5 7.5 0 1 0 -15 0z" fill="#03305d"></path><path d="M13.56 -14.23L56.86 10.77L56.86 60.77L13.56 85.77L-29.74 60.77L-29.74 10.77zM56.86 810.77L100.17 835.77L100.17 885.77L56.86 910.77L13.56 885.77L13.56 835.77zM13.56 885.77L56.86 910.77L56.86 960.77L13.56 985.77L-29.74 960.77L-29.74 910.77zM56.86 960.77L100.17 985.77L100.17 1035.77L56.86 1060.77L13.56 1035.77L13.56 985.77zM56.86 1110.77L100.17 1135.77L100.17 1185.77L56.86 1210.77L13.56 1185.77L13.56 1135.77zM13.56 1185.77L56.86 1210.77L56.86 1260.77L13.56 1285.77L-29.74 1260.77L-29.74 1210.77zM56.86 1410.77L100.17 1435.77L100.17 1485.77L56.86 1510.77L13.56 1485.77L13.56 1435.77zM143.47 510.77L186.77 535.77L186.77 585.77L143.47 610.77L100.17 585.77L100.17 535.77zM143.47 660.77L186.77 685.77L186.77 735.77L143.47 760.77L100.17 735.77L100.17 685.77zM100.17 735.77L143.47 760.77L143.47 810.77L100.17 835.77L56.86 810.77L56.86 760.77zM143.47 810.77L186.77 835.77L186.77 885.77L143.47 910.77L100.17 885.77L100.17 835.77zM143.47 1110.77L186.77 1135.77L186.77 1185.77L143.47 1210.77L100.17 1185.77L100.17 1135.77zM143.47 1260.77L186.77 1285.77L186.77 1335.77L143.47 1360.77L100.17 1335.77L100.17 1285.77zM186.77 585.77L230.07 610.77L230.07 660.77L186.77 685.77L143.47 660.77L143.47 610.77zM230.07 960.77L273.38 985.77L273.38 1035.77L230.07 1060.77L186.77 1035.77L186.77 985.77zM230.07 1260.77L273.38 1285.77L273.38 1335.77L230.07 1360.77L186.77 1335.77L186.77 1285.77zM273.38 -14.23L316.68 10.77L316.68 60.77L273.38 85.77L230.07 60.77L230.07 10.77zM316.68 1110.77L359.98 1135.77L359.98 1185.77L316.68 1210.77L273.38 1185.77L273.38 1135.77zM316.68 1410.77L359.98 1435.77L359.98 1485.77L316.68 1510.77L273.38 1485.77L273.38 1435.77zM403.28 210.77L446.59 235.77L446.59 285.77L403.28 310.77L359.98 285.77L359.98 235.77zM403.28 360.77L446.59 385.77L446.59 435.77L403.28 460.77L359.98 435.77L359.98 385.77zM403.28 660.77L446.59 685.77L446.59 735.77L403.28 760.77L359.98 735.77L359.98 685.77zM359.98 735.77L403.28 760.77L403.28 810.77L359.98 835.77L316.68 810.77L316.68 760.77zM359.98 1035.77L403.28 1060.77L403.28 1110.77L359.98 1135.77L316.68 1110.77L316.68 1060.77zM403.28 1110.77L446.59 1135.77L446.59 1185.77L403.28 1210.77L359.98 1185.77L359.98 1135.77zM403.28 1260.77L446.59 1285.77L446.59 1335.77L403.28 1360.77L359.98 1335.77L359.98 1285.77zM403.28 1410.77L446.59 1435.77L446.59 1485.77L403.28 1510.77L359.98 1485.77L359.98 1435.77zM446.59 -14.23L489.89 10.77L489.89 60.77L446.59 85.77L403.28 60.77L403.28 10.77zM489.89 360.77L533.19 385.77L533.19 435.77L489.89 460.77L446.59 435.77L446.59 385.77zM446.59 435.77L489.89 460.77L489.89 510.77L446.59 535.77L403.28 510.77L403.28 460.77zM489.89 510.77L533.19 535.77L533.19 585.77L489.89 610.77L446.59 585.77L446.59 535.77zM446.59 735.77L489.89 760.77L489.89 810.77L446.59 835.77L403.28 810.77L403.28 760.77zM489.89 960.77L533.19 985.77L533.19 1035.77L489.89 1060.77L446.59 1035.77L446.59 985.77zM489.89 1260.77L533.19 1285.77L533.19 1335.77L489.89 1360.77L446.59 1335.77L446.59 1285.77zM533.19 -14.23L576.49 10.77L576.49 60.77L533.19 85.77L489.89 60.77L489.89 10.77zM533.19 135.77L576.49 160.77L576.49 210.77L533.19 235.77L489.89 210.77L489.89 160.77zM576.49 360.77L619.79 385.77L619.79 435.77L576.49 460.77L533.19 435.77L533.19 385.77zM533.19 435.77L576.49 460.77L576.49 510.77L533.19 535.77L489.89 510.77L489.89 460.77zM576.49 1260.77L619.79 1285.77L619.79 1335.77L576.49 1360.77L533.19 1335.77L533.19 1285.77zM663.1 210.77L706.4 235.77L706.4 285.77L663.1 310.77L619.79 285.77L619.79 235.77zM663.1 660.77L706.4 685.77L706.4 735.77L663.1 760.77L619.79 735.77L619.79 685.77zM619.79 1335.77L663.1 1360.77L663.1 1410.77L619.79 1435.77L576.49 1410.77L576.49 1360.77zM706.4 135.77L749.7 160.77L749.7 210.77L706.4 235.77L663.1 210.77L663.1 160.77zM706.4 285.77L749.7 310.77L749.7 360.77L706.4 385.77L663.1 360.77L663.1 310.77zM749.7 510.77L793 535.77L793 585.77L749.7 610.77L706.4 585.77L706.4 535.77zM749.7 660.77L793 685.77L793 735.77L749.7 760.77L706.4 735.77L706.4 685.77zM706.4 885.77L749.7 910.77L749.7 960.77L706.4 985.77L663.1 960.77L663.1 910.77zM749.7 960.77L793 985.77L793 1035.77L749.7 1060.77L706.4 1035.77L706.4 985.77zM749.7 1110.77L793 1135.77L793 1185.77L749.7 1210.77L706.4 1185.77L706.4 1135.77zM706.4 1185.77L749.7 1210.77L749.7 1260.77L706.4 1285.77L663.1 1260.77L663.1 1210.77zM749.7 1260.77L793 1285.77L793 1335.77L749.7 1360.77L706.4 1335.77L706.4 1285.77zM749.7 1410.77L793 1435.77L793 1485.77L749.7 1510.77L706.4 1485.77L706.4 1435.77zM793 135.77L836.31 160.77L836.31 210.77L793 235.77L749.7 210.77L749.7 160.77zM836.31 210.77L879.61 235.77L879.61 285.77L836.31 310.77L793 285.77L793 235.77zM836.31 510.77L879.61 535.77L879.61 585.77L836.31 610.77L793 585.77L793 535.77zM793 735.77L836.31 760.77L836.31 810.77L793 835.77L749.7 810.77L749.7 760.77zM793 885.77L836.31 910.77L836.31 960.77L793 985.77L749.7 960.77L749.7 910.77zM793 1185.77L836.31 1210.77L836.31 1260.77L793 1285.77L749.7 1260.77L749.7 1210.77zM922.91 210.77L966.22 235.77L966.22 285.77L922.91 310.77L879.61 285.77L879.61 235.77zM879.61 435.77L922.91 460.77L922.91 510.77L879.61 535.77L836.31 510.77L836.31 460.77zM879.61 585.77L922.91 610.77L922.91 660.77L879.61 685.77L836.31 660.77L836.31 610.77zM922.91 660.77L966.22 685.77L966.22 735.77L922.91 760.77L879.61 735.77L879.61 685.77zM879.61 735.77L922.91 760.77L922.91 810.77L879.61 835.77L836.31 810.77L836.31 760.77zM922.91 810.77L966.22 835.77L966.22 885.77L922.91 910.77L879.61 885.77L879.61 835.77zM879.61 1035.77L922.91 1060.77L922.91 1110.77L879.61 1135.77L836.31 1110.77L836.31 1060.77zM922.91 1260.77L966.22 1285.77L966.22 1335.77L922.91 1360.77L879.61 1335.77L879.61 1285.77zM879.61 1335.77L922.91 1360.77L922.91 1410.77L879.61 1435.77L836.31 1410.77L836.31 1360.77zM922.91 1410.77L966.22 1435.77L966.22 1485.77L922.91 1510.77L879.61 1485.77L879.61 1435.77zM966.22 135.77L1009.52 160.77L1009.52 210.77L966.22 235.77L922.91 210.77L922.91 160.77zM966.22 285.77L1009.52 310.77L1009.52 360.77L966.22 385.77L922.91 360.77L922.91 310.77zM966.22 435.77L1009.52 460.77L1009.52 510.77L966.22 535.77L922.91 510.77L922.91 460.77zM966.22 585.77L1009.52 610.77L1009.52 660.77L966.22 685.77L922.91 660.77L922.91 610.77zM1009.52 1110.77L1052.82 1135.77L1052.82 1185.77L1009.52 1210.77L966.22 1185.77L966.22 1135.77zM1052.82 -14.23L1096.12 10.77L1096.12 60.77L1052.82 85.77L1009.52 60.77L1009.52 10.77zM1096.12 60.77L1139.42 85.77L1139.42 135.77L1096.12 160.77L1052.82 135.77L1052.82 85.77zM1052.82 435.77L1096.12 460.77L1096.12 510.77L1052.82 535.77L1009.52 510.77L1009.52 460.77zM1096.12 510.77L1139.42 535.77L1139.42 585.77L1096.12 610.77L1052.82 585.77L1052.82 535.77zM1052.82 585.77L1096.12 610.77L1096.12 660.77L1052.82 685.77L1009.52 660.77L1009.52 610.77zM1096.12 1110.77L1139.42 1135.77L1139.42 1185.77L1096.12 1210.77L1052.82 1185.77L1052.82 1135.77zM1096.12 1260.77L1139.42 1285.77L1139.42 1335.77L1096.12 1360.77L1052.82 1335.77L1052.82 1285.77zM1139.42 -14.23L1182.73 10.77L1182.73 60.77L1139.42 85.77L1096.12 60.77L1096.12 10.77zM1182.73 60.77L1226.03 85.77L1226.03 135.77L1182.73 160.77L1139.42 135.77L1139.42 85.77zM1182.73 810.77L1226.03 835.77L1226.03 885.77L1182.73 910.77L1139.42 885.77L1139.42 835.77zM1139.42 1035.77L1182.73 1060.77L1182.73 1110.77L1139.42 1135.77L1096.12 1110.77L1096.12 1060.77zM1139.42 1335.77L1182.73 1360.77L1182.73 1410.77L1139.42 1435.77L1096.12 1410.77L1096.12 1360.77zM1182.73 1410.77L1226.03 1435.77L1226.03 1485.77L1182.73 1510.77L1139.42 1485.77L1139.42 1435.77zM1226.03 -14.23L1269.33 10.77L1269.33 60.77L1226.03 85.77L1182.73 60.77L1182.73 10.77zM1226.03 135.77L1269.33 160.77L1269.33 210.77L1226.03 235.77L1182.73 210.77L1182.73 160.77zM1226.03 585.77L1269.33 610.77L1269.33 660.77L1226.03 685.77L1182.73 660.77L1182.73 610.77zM1269.33 660.77L1312.63 685.77L1312.63 735.77L1269.33 760.77L1226.03 735.77L1226.03 685.77zM1269.33 960.77L1312.63 985.77L1312.63 1035.77L1269.33 1060.77L1226.03 1035.77L1226.03 985.77zM1269.33 1110.77L1312.63 1135.77L1312.63 1185.77L1269.33 1210.77L1226.03 1185.77L1226.03 1135.77zM1226.03 1335.77L1269.33 1360.77L1269.33 1410.77L1226.03 1435.77L1182.73 1410.77L1182.73 1360.77zM1355.94 210.77L1399.24 235.77L1399.24 285.77L1355.94 310.77L1312.63 285.77L1312.63 235.77zM1312.63 885.77L1355.94 910.77L1355.94 960.77L1312.63 985.77L1269.33 960.77L1269.33 910.77zM1355.94 1260.77L1399.24 1285.77L1399.24 1335.77L1355.94 1360.77L1312.63 1335.77L1312.63 1285.77zM1355.94 1410.77L1399.24 1435.77L1399.24 1485.77L1355.94 1510.77L1312.63 1485.77L1312.63 1435.77zM1399.24 -14.23L1442.54 10.77L1442.54 60.77L1399.24 85.77L1355.94 60.77L1355.94 10.77zM1399.24 285.77L1442.54 310.77L1442.54 360.77L1399.24 385.77L1355.94 360.77L1355.94 310.77zM1442.54 360.77L1485.85 385.77L1485.85 435.77L1442.54 460.77L1399.24 435.77L1399.24 385.77zM1399.24 585.77L1442.54 610.77L1442.54 660.77L1399.24 685.77L1355.94 660.77L1355.94 610.77zM1442.54 660.77L1485.85 685.77L1485.85 735.77L1442.54 760.77L1399.24 735.77L1399.24 685.77zM1442.54 810.77L1485.85 835.77L1485.85 885.77L1442.54 910.77L1399.24 885.77L1399.24 835.77zM1399.24 1035.77L1442.54 1060.77L1442.54 1110.77L1399.24 1135.77L1355.94 1110.77L1355.94 1060.77zM1399.24 1185.77L1442.54 1210.77L1442.54 1260.77L1399.24 1285.77L1355.94 1260.77L1355.94 1210.77zM1399.24 1335.77L1442.54 1360.77L1442.54 1410.77L1399.24 1435.77L1355.94 1410.77L1355.94 1360.77zM1442.54 1410.77L1485.85 1435.77L1485.85 1485.77L1442.54 1510.77L1399.24 1485.77L1399.24 1435.77z" stroke="rgba(6, 80, 156, 0.93)" stroke-width="2"></path></g><defs><mask id="SvgjsMask1123"><rect width="1440" height="1440" fill="#ffffff"></rect></mask><linearGradient x1="0%" y1="0%" x2="100%" y2="100%" gradientUnits="userSpaceOnUse" id="SvgjsLinearGradient1124"><stop stop-color="#0e2a47" offset="0"></stop><stop stop-color="rgba(158, 0, 112, 1)" offset="0.73"></stop><stop stop-color="rgba(158, 0, 112, 1)" offset="1"></stop></linearGradient></defs></svg>