<svg xmlns="http://www.w3.org/2000/svg" version="1.1" xmlns:xlink="http://www.w3.org/1999/xlink" xmlns:svgjs="http://svgjs.com/svgjs" width="1440" height="560" preserveAspectRatio="none" viewBox="0 0 1440 560"><g mask="url(&quot;#SvgjsMask1115&quot;)" fill="none"><rect width="1440" height="560" x="0" y="0" fill="url(#SvgjsLinearGradient1116)"></rect><path d="M57.31 182.95L122.26 220.45L122.26 295.45L57.31 332.95L-7.64 295.45L-7.64 220.45zM122.26 520.45L187.22 557.95L187.22 632.95L122.26 670.45L57.31 632.95L57.31 557.95zM252.17 295.45L317.13 332.95L317.13 407.95L252.17 445.45L187.22 407.95L187.22 332.95zM382.08 520.45L447.03 557.95L447.03 632.95L382.08 670.45L317.13 632.95L317.13 557.95zM511.99 295.45L576.94 332.95L576.94 407.95L511.99 445.45L447.03 407.95L447.03 332.95zM511.99 520.45L576.94 557.95L576.94 632.95L511.99 670.45L447.03 632.95L447.03 557.95zM576.94 -42.05L641.89 -4.55L641.89 70.45L576.94 107.95L511.99 70.45L511.99 -4.55zM706.85 182.95L771.8 220.45L771.8 295.45L706.85 332.95L641.89 295.45L641.89 220.45zM1031.62 70.45L1096.57 107.95L1096.57 182.95L1031.62 220.45L966.66 182.95L966.66 107.95zM966.66 182.95L1031.62 220.45L1031.62 295.45L966.66 332.95L901.71 295.45L901.71 220.45zM1031.62 520.45L1096.57 557.95L1096.57 632.95L1031.62 670.45L966.66 632.95L966.66 557.95zM1161.52 70.45L1226.48 107.95L1226.48 182.95L1161.52 220.45L1096.57 182.95L1096.57 107.95zM1226.48 182.95L1291.43 220.45L1291.43 295.45L1226.48 332.95L1161.52 295.45L1161.52 220.45zM1421.34 70.45L1486.29 107.95L1486.29 182.95L1421.34 220.45L1356.38 182.95L1356.38 107.95zM1356.38 182.95L1421.34 220.45L1421.34 295.45L1356.38 332.95L1291.43 295.45L1291.43 220.45zM1356.38 407.95L1421.34 445.45L1421.34 520.45L1356.38 557.95L1291.43 520.45L1291.43 445.45z" stroke="#03305d" stroke-width="2"></path><path d="M49.81 182.95 a7.5 7.5 0 1 0 15 0 a7.5 7.5 0 1 0 -15 0zM114.76 220.45 a7.5 7.5 0 1 0 15 0 a7.5 7.5 0 1 0 -15 0zM114.76 295.45 a7.5 7.5 0 1 0 15 0 a7.5 7.5 0 1 0 -15 0zM49.81 332.95 a7.5 7.5 0 1 0 15 0 a7.5 7.5 0 1 0 -15 0zM-15.14 295.45 a7.5 7.5 0 1 0 15 0 a7.5 7.5 0 1 0 -15 0zM-15.14 220.45 a7.5 7.5 0 1 0 15 0 a7.5 7.5 0 1 0 -15 0zM114.76 520.45 a7.5 7.5 0 1 0 15 0 a7.5 7.5 0 1 0 -15 0zM179.72 557.95 a7.5 7.5 0 1 0 15 0 a7.5 7.5 0 1 0 -15 0zM179.72 632.95 a7.5 7.5 0 1 0 15 0 a7.5 7.5 0 1 0 -15 0zM114.76 670.45 a7.5 7.5 0 1 0 15 0 a7.5 7.5 0 1 0 -15 0zM49.81 632.95 a7.5 7.5 0 1 0 15 0 a7.5 7.5 0 1 0 -15 0zM49.81 557.95 a7.5 7.5 0 1 0 15 0 a7.5 7.5 0 1 0 -15 0zM244.67 295.45 a7.5 7.5 0 1 0 15 0 a7.5 7.5 0 1 0 -15 0zM309.63 332.95 a7.5 7.5 0 1 0 15 0 a7.5 7.5 0 1 0 -15 0zM309.63 407.95 a7.5 7.5 0 1 0 15 0 a7.5 7.5 0 1 0 -15 0zM244.67 445.45 a7.5 7.5 0 1 0 15 0 a7.5 7.5 0 1 0 -15 0zM179.72 407.95 a7.5 7.5 0 1 0 15 0 a7.5 7.5 0 1 0 -15 0zM179.72 332.95 a7.5 7.5 0 1 0 15 0 a7.5 7.5 0 1 0 -15 0zM374.58 520.45 a7.5 7.5 0 1 0 15 0 a7.5 7.5 0 1 0 -15 0zM439.53 557.95 a7.5 7.5 0 1 0 15 0 a7.5 7.5 0 1 0 -15 0zM439.53 632.95 a7.5 7.5 0 1 0 15 0 a7.5 7.5 0 1 0 -15 0zM374.58 670.45 a7.5 7.5 0 1 0 15 0 a7.5 7.5 0 1 0 -15 0zM309.63 632.95 a7.5 7.5 0 1 0 15 0 a7.5 7.5 0 1 0 -15 0zM309.63 557.95 a7.5 7.5 0 1 0 15 0 a7.5 7.5 0 1 0 -15 0zM504.49 295.45 a7.5 7.5 0 1 0 15 0 a7.5 7.5 0 1 0 -15 0zM569.44 332.95 a7.5 7.5 0 1 0 15 0 a7.5 7.5 0 1 0 -15 0zM569.44 407.95 a7.5 7.5 0 1 0 15 0 a7.5 7.5 0 1 0 -15 0zM504.49 445.45 a7.5 7.5 0 1 0 15 0 a7.5 7.5 0 1 0 -15 0zM439.53 407.95 a7.5 7.5 0 1 0 15 0 a7.5 7.5 0 1 0 -15 0zM439.53 332.95 a7.5 7.5 0 1 0 15 0 a7.5 7.5 0 1 0 -15 0zM504.49 520.45 a7.5 7.5 0 1 0 15 0 a7.5 7.5 0 1 0 -15 0zM569.44 557.95 a7.5 7.5 0 1 0 15 0 a7.5 7.5 0 1 0 -15 0zM569.44 632.95 a7.5 7.5 0 1 0 15 0 a7.5 7.5 0 1 0 -15 0zM504.49 670.45 a7.5 7.5 0 1 0 15 0 a7.5 7.5 0 1 0 -15 0zM569.44 -42.05 a7.5 7.5 0 1 0 15 0 a7.5 7.5 0 1 0 -15 0zM634.39 -4.55 a7.5 7.5 0 1 0 15 0 a7.5 7.5 0 1 0 -15 0zM634.39 70.45 a7.5 7.5 0 1 0 15 0 a7.5 7.5 0 1 0 -15 0zM569.44 107.95 a7.5 7.5 0 1 0 15 0 a7.5 7.5 0 1 0 -15 0zM504.49 70.45 a7.5 7.5 0 1 0 15 0 a7.5 7.5 0 1 0 -15 0zM504.49 -4.55 a7.5 7.5 0 1 0 15 0 a7.5 7.5 0 1 0 -15 0zM699.35 182.95 a7.5 7.5 0 1 0 15 0 a7.5 7.5 0 1 0 -15 0zM764.3 220.45 a7.5 7.5 0 1 0 15 0 a7.5 7.5 0 1 0 -15 0zM764.3 295.45 a7.5 7.5 0 1 0 15 0 a7.5 7.5 0 1 0 -15 0zM699.35 332.95 a7.5 7.5 0 1 0 15 0 a7.5 7.5 0 1 0 -15 0zM634.39 295.45 a7.5 7.5 0 1 0 15 0 a7.5 7.5 0 1 0 -15 0zM634.39 220.45 a7.5 7.5 0 1 0 15 0 a7.5 7.5 0 1 0 -15 0zM1024.12 70.45 a7.5 7.5 0 1 0 15 0 a7.5 7.5 0 1 0 -15 0zM1089.07 107.95 a7.5 7.5 0 1 0 15 0 a7.5 7.5 0 1 0 -15 0zM1089.07 182.95 a7.5 7.5 0 1 0 15 0 a7.5 7.5 0 1 0 -15 0zM1024.12 220.45 a7.5 7.5 0 1 0 15 0 a7.5 7.5 0 1 0 -15 0zM959.16 182.95 a7.5 7.5 0 1 0 15 0 a7.5 7.5 0 1 0 -15 0zM959.16 107.95 a7.5 7.5 0 1 0 15 0 a7.5 7.5 0 1 0 -15 0zM1024.12 295.45 a7.5 7.5 0 1 0 15 0 a7.5 7.5 0 1 0 -15 0zM959.16 332.95 a7.5 7.5 0 1 0 15 0 a7.5 7.5 0 1 0 -15 0zM894.21 295.45 a7.5 7.5 0 1 0 15 0 a7.5 7.5 0 1 0 -15 0zM894.21 220.45 a7.5 7.5 0 1 0 15 0 a7.5 7.5 0 1 0 -15 0zM1024.12 520.45 a7.5 7.5 0 1 0 15 0 a7.5 7.5 0 1 0 -15 0zM1089.07 557.95 a7.5 7.5 0 1 0 15 0 a7.5 7.5 0 1 0 -15 0zM1089.07 632.95 a7.5 7.5 0 1 0 15 0 a7.5 7.5 0 1 0 -15 0zM1024.12 670.45 a7.5 7.5 0 1 0 15 0 a7.5 7.5 0 1 0 -15 0zM959.16 632.95 a7.5 7.5 0 1 0 15 0 a7.5 7.5 0 1 0 -15 0zM959.16 557.95 a7.5 7.5 0 1 0 15 0 a7.5 7.5 0 1 0 -15 0zM1154.02 70.45 a7.5 7.5 0 1 0 15 0 a7.5 7.5 0 1 0 -15 0zM1218.98 107.95 a7.5 7.5 0 1 0 15 0 a7.5 7.5 0 1 0 -15 0zM1218.98 182.95 a7.5 7.5 0 1 0 15 0 a7.5 7.5 0 1 0 -15 0zM1154.02 220.45 a7.5 7.5 0 1 0 15 0 a7.5 7.5 0 1 0 -15 0zM1283.93 220.45 a7.5 7.5 0 1 0 15 0 a7.5 7.5 0 1 0 -15 0zM1283.93 295.45 a7.5 7.5 0 1 0 15 0 a7.5 7.5 0 1 0 -15 0zM1218.98 332.95 a7.5 7.5 0 1 0 15 0 a7.5 7.5 0 1 0 -15 0zM1154.02 295.45 a7.5 7.5 0 1 0 15 0 a7.5 7.5 0 1 0 -15 0zM1413.84 70.45 a7.5 7.5 0 1 0 15 0 a7.5 7.5 0 1 0 -15 0zM1478.79 107.95 a7.5 7.5 0 1 0 15 0 a7.5 7.5 0 1 0 -15 0zM1478.79 182.95 a7.5 7.5 0 1 0 15 0 a7.5 7.5 0 1 0 -15 0zM1413.84 220.45 a7.5 7.5 0 1 0 15 0 a7.5 7.5 0 1 0 -15 0zM1348.88 182.95 a7.5 7.5 0 1 0 15 0 a7.5 7.5 0 1 0 -15 0zM1348.88 107.95 a7.5 7.5 0 1 0 15 0 a7.5 7.5 0 1 0 -15 0zM1413.84 295.45 a7.5 7.5 0 1 0 15 0 a7.5 7.5 0 1 0 -15 0zM1348.88 332.95 a7.5 7.5 0 1 0 15 0 a7.5 7.5 0 1 0 -15 0zM1348.88 407.95 a7.5 7.5 0 1 0 15 0 a7.5 7.5 0 1 0 -15 0zM1413.84 445.45 a7.5 7.5 0 1 0 15 0 a7.5 7.5 0 1 0 -15 0zM1413.84 520.45 a7.5 7.5 0 1 0 15 0 a7.5 7.5 0 1 0 -15 0zM1348.88 557.95 a7.5 7.5 0 1 0 15 0 a7.5 7.5 0 1 0 -15 0zM1283.93 520.45 a7.5 7.5 0 1 0 15 0 a7.5 7.5 0 1 0 -15 0zM1283.93 445.45 a7.5 7.5 0 1 0 15 0 a7.5 7.5 0 1 0 -15 0z" fill="#03305d"></path><path d="M68.45 43.83L111.75 68.83L111.75 118.83L68.45 143.83L25.15 118.83L25.15 68.83zM25.15 268.83L68.45 293.83L68.45 343.83L25.15 368.83L-18.15 343.83L-18.15 293.83zM68.45 493.83L111.75 518.83L111.75 568.83L68.45 593.83L25.15 568.83L25.15 518.83zM111.75 -31.17L155.06 -6.17L155.06 43.83L111.75 68.83L68.45 43.83L68.45 -6.17zM155.06 43.83L198.36 68.83L198.36 118.83L155.06 143.83L111.75 118.83L111.75 68.83zM111.75 268.83L155.06 293.83L155.06 343.83L111.75 368.83L68.45 343.83L68.45 293.83zM198.36 118.83L241.66 143.83L241.66 193.83L198.36 218.83L155.06 193.83L155.06 143.83zM241.66 193.83L284.96 218.83L284.96 268.83L241.66 293.83L198.36 268.83L198.36 218.83zM241.66 343.83L284.96 368.83L284.96 418.83L241.66 443.83L198.36 418.83L198.36 368.83zM284.96 -31.17L328.27 -6.17L328.27 43.83L284.96 68.83L241.66 43.83L241.66 -6.17zM328.27 193.83L371.57 218.83L371.57 268.83L328.27 293.83L284.96 268.83L284.96 218.83zM328.27 493.83L371.57 518.83L371.57 568.83L328.27 593.83L284.96 568.83L284.96 518.83zM414.87 493.83L458.18 518.83L458.18 568.83L414.87 593.83L371.57 568.83L371.57 518.83zM501.48 43.83L544.78 68.83L544.78 118.83L501.48 143.83L458.18 118.83L458.18 68.83zM458.18 118.83L501.48 143.83L501.48 193.83L458.18 218.83L414.87 193.83L414.87 143.83zM501.48 193.83L544.78 218.83L544.78 268.83L501.48 293.83L458.18 268.83L458.18 218.83zM458.18 268.83L501.48 293.83L501.48 343.83L458.18 368.83L414.87 343.83L414.87 293.83zM501.48 343.83L544.78 368.83L544.78 418.83L501.48 443.83L458.18 418.83L458.18 368.83zM501.48 493.83L544.78 518.83L544.78 568.83L501.48 593.83L458.18 568.83L458.18 518.83zM544.78 -31.17L588.08 -6.17L588.08 43.83L544.78 68.83L501.48 43.83L501.48 -6.17zM588.08 343.83L631.38 368.83L631.38 418.83L588.08 443.83L544.78 418.83L544.78 368.83zM544.78 418.83L588.08 443.83L588.08 493.83L544.78 518.83L501.48 493.83L501.48 443.83zM631.38 -31.17L674.69 -6.17L674.69 43.83L631.38 68.83L588.08 43.83L588.08 -6.17zM674.69 43.83L717.99 68.83L717.99 118.83L674.69 143.83L631.38 118.83L631.38 68.83zM631.38 118.83L674.69 143.83L674.69 193.83L631.38 218.83L588.08 193.83L588.08 143.83zM631.38 268.83L674.69 293.83L674.69 343.83L631.38 368.83L588.08 343.83L588.08 293.83zM674.69 343.83L717.99 368.83L717.99 418.83L674.69 443.83L631.38 418.83L631.38 368.83zM761.29 43.83L804.6 68.83L804.6 118.83L761.29 143.83L717.99 118.83L717.99 68.83zM717.99 118.83L761.29 143.83L761.29 193.83L717.99 218.83L674.69 193.83L674.69 143.83zM761.29 343.83L804.6 368.83L804.6 418.83L761.29 443.83L717.99 418.83L717.99 368.83zM761.29 493.83L804.6 518.83L804.6 568.83L761.29 593.83L717.99 568.83L717.99 518.83zM804.6 -31.17L847.9 -6.17L847.9 43.83L804.6 68.83L761.29 43.83L761.29 -6.17zM847.9 193.83L891.2 218.83L891.2 268.83L847.9 293.83L804.6 268.83L804.6 218.83zM847.9 343.83L891.2 368.83L891.2 418.83L847.9 443.83L804.6 418.83L804.6 368.83zM804.6 418.83L847.9 443.83L847.9 493.83L804.6 518.83L761.29 493.83L761.29 443.83zM934.5 193.83L977.81 218.83L977.81 268.83L934.5 293.83L891.2 268.83L891.2 218.83zM891.2 268.83L934.5 293.83L934.5 343.83L891.2 368.83L847.9 343.83L847.9 293.83zM934.5 343.83L977.81 368.83L977.81 418.83L934.5 443.83L891.2 418.83L891.2 368.83zM891.2 418.83L934.5 443.83L934.5 493.83L891.2 518.83L847.9 493.83L847.9 443.83zM934.5 493.83L977.81 518.83L977.81 568.83L934.5 593.83L891.2 568.83L891.2 518.83zM977.81 -31.17L1021.11 -6.17L1021.11 43.83L977.81 68.83L934.5 43.83L934.5 -6.17zM1107.71 193.83L1151.02 218.83L1151.02 268.83L1107.71 293.83L1064.41 268.83L1064.41 218.83zM1064.41 418.83L1107.71 443.83L1107.71 493.83L1064.41 518.83L1021.11 493.83L1021.11 443.83zM1194.32 43.83L1237.62 68.83L1237.62 118.83L1194.32 143.83L1151.02 118.83L1151.02 68.83zM1194.32 193.83L1237.62 218.83L1237.62 268.83L1194.32 293.83L1151.02 268.83L1151.02 218.83zM1151.02 268.83L1194.32 293.83L1194.32 343.83L1151.02 368.83L1107.71 343.83L1107.71 293.83zM1151.02 418.83L1194.32 443.83L1194.32 493.83L1151.02 518.83L1107.71 493.83L1107.71 443.83zM1237.62 -31.17L1280.92 -6.17L1280.92 43.83L1237.62 68.83L1194.32 43.83L1194.32 -6.17zM1280.92 493.83L1324.23 518.83L1324.23 568.83L1280.92 593.83L1237.62 568.83L1237.62 518.83zM1324.23 -31.17L1367.53 -6.17L1367.53 43.83L1324.23 68.83L1280.92 43.83L1280.92 -6.17zM1367.53 193.83L1410.83 218.83L1410.83 268.83L1367.53 293.83L1324.23 268.83L1324.23 218.83zM1324.23 268.83L1367.53 293.83L1367.53 343.83L1324.23 368.83L1280.92 343.83L1280.92 293.83zM1324.23 418.83L1367.53 443.83L1367.53 493.83L1324.23 518.83L1280.92 493.83L1280.92 443.83zM1410.83 118.83L1454.13 143.83L1454.13 193.83L1410.83 218.83L1367.53 193.83L1367.53 143.83zM1454.13 193.83L1497.44 218.83L1497.44 268.83L1454.13 293.83L1410.83 268.83L1410.83 218.83zM1410.83 268.83L1454.13 293.83L1454.13 343.83L1410.83 368.83L1367.53 343.83L1367.53 293.83z" stroke="rgba(6, 80, 156, 0.93)" stroke-width="2"></path></g><defs><mask id="SvgjsMask1115"><rect width="1440" height="560" fill="#ffffff"></rect></mask><linearGradient x1="15.28%" y1="-39.29%" x2="84.72%" y2="139.29%" gradientUnits="userSpaceOnUse" id="SvgjsLinearGradient1116"><stop stop-color="#0e2a47" offset="0"></stop><stop stop-color="rgba(158, 0, 112, 1)" offset="0.73"></stop><stop stop-color="rgba(158, 0, 112, 1)" offset="1"></stop></linearGradient></defs></svg>